<mxfile host="app.diagrams.net" agent="Mozilla/5.0 (Windows NT 10.0; Win64; x64) AppleWebKit/537.36 (KHTML, like Gecko) Chrome/135.0.0.0 Safari/537.36" version="27.0.4">
  <diagram name="Page-1" id="929967ad-93f9-6ef4-fab6-5d389245f69c">
    <mxGraphModel dx="1754" dy="1013" grid="1" gridSize="10" guides="1" tooltips="1" connect="1" arrows="1" fold="1" page="1" pageScale="1.5" pageWidth="1169" pageHeight="826" background="none" math="0" shadow="0">
      <root>
        <mxCell id="0" style=";html=1;" />
        <mxCell id="1" style=";html=1;" parent="0" />
        <mxCell id="5Dsq9sax4IMBlSlcCFGJ-1" value="user&lt;div&gt;&lt;br&gt;&lt;/div&gt;" style="shape=umlActor;verticalLabelPosition=bottom;verticalAlign=top;html=1;outlineConnect=0;" vertex="1" parent="1">
          <mxGeometry x="400" y="440" width="30" height="60" as="geometry" />
        </mxCell>
        <mxCell id="5Dsq9sax4IMBlSlcCFGJ-3" value=":AddMemberUI" style="rounded=0;whiteSpace=wrap;html=1;" vertex="1" parent="1">
          <mxGeometry x="680" y="450" width="120" height="60" as="geometry" />
        </mxCell>
        <mxCell id="5Dsq9sax4IMBlSlcCFGJ-4" value=":AddMember" style="rounded=0;whiteSpace=wrap;html=1;" vertex="1" parent="1">
          <mxGeometry x="1160" y="450" width="120" height="60" as="geometry" />
        </mxCell>
        <mxCell id="5Dsq9sax4IMBlSlcCFGJ-5" value=":Member" style="rounded=0;whiteSpace=wrap;html=1;" vertex="1" parent="1">
          <mxGeometry x="840" y="760" width="120" height="60" as="geometry" />
        </mxCell>
        <mxCell id="5Dsq9sax4IMBlSlcCFGJ-6" value="newMember:Member" style="rounded=0;whiteSpace=wrap;html=1;" vertex="1" parent="1">
          <mxGeometry x="1150" y="760" width="140" height="60" as="geometry" />
        </mxCell>
        <mxCell id="5Dsq9sax4IMBlSlcCFGJ-7" value="" style="endArrow=none;html=1;rounded=0;entryX=0.11;entryY=0.285;entryDx=0;entryDy=0;entryPerimeter=0;exitX=0;exitY=0.5;exitDx=0;exitDy=0;" edge="1" parent="1" source="5Dsq9sax4IMBlSlcCFGJ-3">
          <mxGeometry width="50" height="50" relative="1" as="geometry">
            <mxPoint x="790" y="610" as="sourcePoint" />
            <mxPoint x="440.20000000000005" y="480.25" as="targetPoint" />
          </mxGeometry>
        </mxCell>
        <mxCell id="5Dsq9sax4IMBlSlcCFGJ-8" value="" style="endArrow=none;html=1;rounded=0;entryX=0.11;entryY=0.285;entryDx=0;entryDy=0;entryPerimeter=0;" edge="1" parent="1" source="5Dsq9sax4IMBlSlcCFGJ-4">
          <mxGeometry width="50" height="50" relative="1" as="geometry">
            <mxPoint x="1040" y="479.57" as="sourcePoint" />
            <mxPoint x="800" y="479.57" as="targetPoint" />
          </mxGeometry>
        </mxCell>
        <mxCell id="5Dsq9sax4IMBlSlcCFGJ-9" value="" style="endArrow=none;html=1;rounded=0;entryX=0.5;entryY=0;entryDx=0;entryDy=0;" edge="1" parent="1" target="5Dsq9sax4IMBlSlcCFGJ-5">
          <mxGeometry width="50" height="50" relative="1" as="geometry">
            <mxPoint x="1220" y="510" as="sourcePoint" />
            <mxPoint x="810" y="489.57" as="targetPoint" />
          </mxGeometry>
        </mxCell>
        <mxCell id="5Dsq9sax4IMBlSlcCFGJ-10" value="" style="endArrow=none;html=1;rounded=0;exitX=0.5;exitY=1;exitDx=0;exitDy=0;" edge="1" parent="1" source="5Dsq9sax4IMBlSlcCFGJ-4" target="5Dsq9sax4IMBlSlcCFGJ-6">
          <mxGeometry width="50" height="50" relative="1" as="geometry">
            <mxPoint x="1230" y="520" as="sourcePoint" />
            <mxPoint x="910" y="770" as="targetPoint" />
          </mxGeometry>
        </mxCell>
        <mxCell id="5Dsq9sax4IMBlSlcCFGJ-21" value="" style="endArrow=classic;html=1;rounded=0;movable=1;resizable=1;rotatable=1;deletable=1;editable=1;locked=0;connectable=1;" edge="1" parent="1">
          <mxGeometry width="50" height="50" relative="1" as="geometry">
            <mxPoint x="480" y="460" as="sourcePoint" />
            <mxPoint x="640" y="460" as="targetPoint" />
          </mxGeometry>
        </mxCell>
        <mxCell id="5Dsq9sax4IMBlSlcCFGJ-22" value="" style="endArrow=classic;html=1;rounded=0;movable=1;resizable=1;rotatable=1;deletable=1;editable=1;locked=0;connectable=1;" edge="1" parent="1">
          <mxGeometry width="50" height="50" relative="1" as="geometry">
            <mxPoint x="840" y="460" as="sourcePoint" />
            <mxPoint x="1120" y="460" as="targetPoint" />
          </mxGeometry>
        </mxCell>
        <mxCell id="5Dsq9sax4IMBlSlcCFGJ-23" value="" style="endArrow=classic;html=1;rounded=0;movable=1;resizable=1;rotatable=1;deletable=1;editable=1;locked=0;connectable=1;" edge="1" parent="1">
          <mxGeometry width="50" height="50" relative="1" as="geometry">
            <mxPoint x="1120" y="500.8695652173915" as="sourcePoint" />
            <mxPoint x="840" y="500.8695652173915" as="targetPoint" />
          </mxGeometry>
        </mxCell>
        <mxCell id="5Dsq9sax4IMBlSlcCFGJ-24" value="" style="endArrow=classic;html=1;rounded=0;movable=1;resizable=1;rotatable=1;deletable=1;editable=1;locked=0;connectable=1;" edge="1" parent="1">
          <mxGeometry width="50" height="50" relative="1" as="geometry">
            <mxPoint x="1150" y="538.9995652173915" as="sourcePoint" />
            <mxPoint x="940" y="699" as="targetPoint" />
          </mxGeometry>
        </mxCell>
        <mxCell id="5Dsq9sax4IMBlSlcCFGJ-25" value="" style="endArrow=classic;html=1;rounded=0;movable=1;resizable=1;rotatable=1;deletable=1;editable=1;locked=0;connectable=1;" edge="1" parent="1">
          <mxGeometry width="50" height="50" relative="1" as="geometry">
            <mxPoint x="1240" y="549.9995652173915" as="sourcePoint" />
            <mxPoint x="1240" y="720" as="targetPoint" />
          </mxGeometry>
        </mxCell>
        <mxCell id="5Dsq9sax4IMBlSlcCFGJ-28" value="&lt;b&gt;sd &lt;/b&gt;회원가입" style="shape=umlFrame;whiteSpace=wrap;html=1;pointerEvents=0;width=90;height=30;" vertex="1" parent="1">
          <mxGeometry x="320" y="360" width="1080" height="520" as="geometry" />
        </mxCell>
        <UserObject label="2: inputData()" placeholders="1" name="Variable" id="5Dsq9sax4IMBlSlcCFGJ-29">
          <mxCell style="text;html=1;strokeColor=none;fillColor=none;align=center;verticalAlign=middle;whiteSpace=wrap;overflow=hidden;" vertex="1" parent="1">
            <mxGeometry x="500" y="410" width="80" height="20" as="geometry" />
          </mxCell>
        </UserObject>
        <UserObject label="3: clikckRegistration()" placeholders="1" name="Variable" id="5Dsq9sax4IMBlSlcCFGJ-30">
          <mxCell style="text;html=1;strokeColor=none;fillColor=none;align=center;verticalAlign=middle;whiteSpace=wrap;overflow=hidden;" vertex="1" parent="1">
            <mxGeometry x="500" y="430" width="120" height="20" as="geometry" />
          </mxCell>
        </UserObject>
        <UserObject label="2.1: validateInputData()" placeholders="1" name="Variable" id="5Dsq9sax4IMBlSlcCFGJ-31">
          <mxCell style="text;html=1;strokeColor=none;fillColor=none;align=center;verticalAlign=middle;whiteSpace=wrap;overflow=hidden;" vertex="1" parent="1">
            <mxGeometry x="920" y="410" width="130" height="20" as="geometry" />
          </mxCell>
        </UserObject>
        <UserObject label="3.1: addNewMember()" placeholders="1" name="Variable" id="5Dsq9sax4IMBlSlcCFGJ-32">
          <mxCell style="text;html=1;strokeColor=none;fillColor=none;align=center;verticalAlign=middle;whiteSpace=wrap;overflow=hidden;" vertex="1" parent="1">
            <mxGeometry x="917" y="430" width="130" height="20" as="geometry" />
          </mxCell>
        </UserObject>
        <UserObject label="1: displayInputForm()" placeholders="1" name="Variable" id="5Dsq9sax4IMBlSlcCFGJ-33">
          <mxCell style="text;html=1;strokeColor=none;fillColor=none;align=center;verticalAlign=middle;whiteSpace=wrap;overflow=hidden;" vertex="1" parent="1">
            <mxGeometry x="912" y="510" width="130" height="20" as="geometry" />
          </mxCell>
        </UserObject>
        <UserObject label="2.1.1: getMember()" placeholders="1" name="Variable" id="5Dsq9sax4IMBlSlcCFGJ-35">
          <mxCell style="text;html=1;strokeColor=none;fillColor=none;align=center;verticalAlign=middle;whiteSpace=wrap;overflow=hidden;" vertex="1" parent="1">
            <mxGeometry x="917" y="600" width="130" height="20" as="geometry" />
          </mxCell>
        </UserObject>
        <UserObject label="3.1.1: Member()" placeholders="1" name="Variable" id="5Dsq9sax4IMBlSlcCFGJ-38">
          <mxCell style="text;html=1;strokeColor=none;fillColor=none;align=center;verticalAlign=middle;whiteSpace=wrap;overflow=hidden;" vertex="1" parent="1">
            <mxGeometry x="1230" y="630" width="130" height="20" as="geometry" />
          </mxCell>
        </UserObject>
      </root>
    </mxGraphModel>
  </diagram>
</mxfile>
